<svg xmlns="http://www.w3.org/2000/svg" viewBox="0 0 474.75 313.34"><defs><style>.cls-1,.cls-3,.cls-4{fill:#17a9e0;}.cls-2{fill:#1d4a56;}.cls-3{stroke:#1ba9e0;stroke-miterlimit:10;}.cls-4{font-size:95.34px;font-family:ErasITC-Bold, Eras Bold ITC;font-weight:700;}</style></defs><g id="Layer_2" data-name="Layer 2"><g id="Calque_1" data-name="Calque 1"><rect class="cls-1" x="76.7" y="221.26" width="16.77" height="16.77" rx="1.57"/><rect class="cls-1" x="97.19" y="199.22" width="16.15" height="12.11" rx="1.57"/><rect class="cls-1" x="64.9" y="199.84" width="18.63" height="16.77" rx="1.57"/><rect class="cls-1" x="25.46" y="181.21" width="31.98" height="25.46" rx="1.57"/><rect class="cls-1" x="26.7" y="212.85" width="30.74" height="25.15" rx="1.57"/><rect class="cls-1" y="197.97" width="20.49" height="18.63" rx="1.57"/><rect class="cls-1" x="5.64" y="222.82" width="10.25" height="10.25" rx="1.57"/><path class="cls-2" d="M116.37,137.41h18a55.39,55.39,0,0,1,11.2-17.08H124A61.47,61.47,0,0,0,116.37,137.41Z"/><path class="cls-2" d="M159.18,195.65c-19.12-13-27.65-28.48-27.65-44.41,0-.64.07-1.28.11-1.93H114.57c0,.65-.07,1.29-.07,1.93,0,15.93,7.22,31.07,20.41,44.41Z"/><path class="cls-1" d="M207.77,85.68l3.79-1.16,1.55-3.65C229.84,41.49,261.4,17,295.46,17c34.26,0,65.91,24.67,82.59,64.39l1.53,3.63,3.75,1.19c45.89,14.53,74.39,39.43,74.39,65,0,15.88-11,31.43-30.18,44.41h26.75c13.23-13.36,20.46-28.52,20.46-44.41,0-33-30.78-62.72-82.57-80C372.38,27.18,335.62,0,295.46,0,255.55,0,218.9,26.94,199,70.58c-25.57,8.3-46.13,19.57-60.57,32.78h28.6A182.46,182.46,0,0,1,207.77,85.68Z"/><polygon class="cls-3" points="302.86 125.15 295.8 125.15 266.16 186.65 277.46 186.65 299.33 141.27 321.21 186.65 332.5 186.65 302.86 125.15"/><polygon class="cls-1" points="378.12 174.44 342.54 174.44 342.54 123.58 328.77 123.58 328.77 158.82 342.94 188.22 371.34 188.22 378.12 174.44"/><path class="cls-1" d="M228.39,149c.13,1.39.25,2.79.25,4.22a53.3,53.3,0,0,1-.87,9.57h38.94L273.5,149Z"/><path class="cls-1" d="M213.47,123.67a21.12,21.12,0,0,1,3.2,1.73,20.19,20.19,0,0,1,6,6.22,29.21,29.21,0,0,1,2.66,5.84h53.34l6.79-13.79Z"/><path class="cls-1" d="M221.92,174.35a29.51,29.51,0,0,1-3.69,6.07,25.24,25.24,0,0,1-5.37,4.91,21.47,21.47,0,0,1-4.53,2.38c-.41.15-.85.29-1.34.43h48.24L262,174.35Z"/><text class="cls-4" transform="translate(155.62 187.78) scale(0.87 1)">D</text><path class="cls-1" d="M446.37,178.33a38.28,38.28,0,0,1-30.71,15.47H220.84c-1.33,0-20.69-.07-22-.21v18.1c1.3.09,20.66.15,22,.15H415.66a56.49,56.49,0,0,0,51.54-33.51Z"/><path class="cls-1" d="M350.42,205.1a38.27,38.27,0,0,1-30.7,15.47H124.89c-1.33,0-20.69-.07-22-.21v18.1c1.31.09,20.67.15,22,.15H319.72a56.48,56.48,0,0,0,51.53-33.51Z"/><path class="cls-2" d="M56.84,297.41c-.37,1.74-.8,4.17-1.31,7.28s-.86,5.52-1,7.23a118.84,118.84,0,0,1-17.2,1.42,49.18,49.18,0,0,1-13.59-1.8,33.41,33.41,0,0,1-11.53-5.9A23.37,23.37,0,0,1,4.67,296a32.79,32.79,0,0,1-2.25-12.42,33.38,33.38,0,0,1,3-14.44,28.47,28.47,0,0,1,8.74-10.7,36.69,36.69,0,0,1,12.5-6.12,53.41,53.41,0,0,1,14.05-1.84,99.82,99.82,0,0,1,16.49,1.69l.09,3.72q.09,2.44.27,5.37l.32,5.06c-3.52-.83-6.36-1.39-8.54-1.69a46.22,46.22,0,0,0-6.06-.44,24.39,24.39,0,0,0-10.94,2.4,18.16,18.16,0,0,0-7.66,7,19.05,19.05,0,0,0-2.79,10.12,15.14,15.14,0,0,0,8.67,14.26,22,22,0,0,0,9.84,2,52.11,52.11,0,0,0,7-.51A84.83,84.83,0,0,0,56.84,297.41Z"/><path class="cls-2" d="M102.64,250.47a50.3,50.3,0,0,1,13.88,1.91,31.21,31.21,0,0,1,11.66,6.1,27.1,27.1,0,0,1,7.48,9.65,30.11,30.11,0,0,1,2.48,12.56,33.72,33.72,0,0,1-2.73,13.68A28.75,28.75,0,0,1,127.55,305a32.29,32.29,0,0,1-12.25,6.36,55.19,55.19,0,0,1-29.41.05A31.63,31.63,0,0,1,73.75,305a25.39,25.39,0,0,1-7.32-9.83,32.19,32.19,0,0,1-2.16-12,31.57,31.57,0,0,1,4.57-17.06A30.33,30.33,0,0,1,82.4,254.6,48,48,0,0,1,102.64,250.47Zm-.81,13.36a17.93,17.93,0,0,0-9.37,2.5,16.75,16.75,0,0,0-6.44,7,20.92,20.92,0,0,0-2.25,9.56,18.21,18.21,0,0,0,2,8.61,14.38,14.38,0,0,0,6.24,6.1,18.87,18.87,0,0,0,8.87,2.19,17.73,17.73,0,0,0,9.17-2.46,16.12,16.12,0,0,0,6.35-6.92,21.05,21.05,0,0,0,2.18-9.34,19.16,19.16,0,0,0-2-8.76,14.63,14.63,0,0,0-6-6.24A17.7,17.7,0,0,0,101.83,263.83Z"/><path class="cls-2" d="M145.39,312.19l.9-9.32,1.76-31.59.49-12.73v-6.93q7,.09,12.37.09c2.55,0,6.15,0,10.78-.09l19.23,34.45,2.65,5.06q.5-7.45,1-20.91t.54-18.6c3.68.06,6.64.09,8.86.09q1.53,0,8.82-.09l-1.08,13.23-2,36.73-.27,10.61c-3.9-.06-7.56-.09-10.95-.09-2.83,0-6.73,0-11.72.09-1.56-2.9-2.71-5-3.47-6.31l-7.55-12.65Q172,287,168.87,281.34q-2.07-3.6-4.28-7.9l-1,21-.46,17.71q-5.58-.09-8.5-.09Q152.19,312.1,145.39,312.19Z"/><path class="cls-2" d="M221.11,312.19l.9-9.32,1.76-31.59.49-12.73v-6.93q7,.09,12.36.09,3.84,0,10.78-.09l19.23,34.45,2.65,5.06q.51-7.45,1-20.91t.53-18.6q5.53.09,8.87.09,1.53,0,8.82-.09l-1.08,13.23-2,36.73-.27,10.61q-5.87-.09-11-.09c-2.83,0-6.73,0-11.72.09q-2.34-4.35-3.47-6.31l-7.55-12.65q-3.74-6.21-6.89-11.89-2.06-3.6-4.27-7.9l-1,21-.46,17.71q-5.58-.09-8.5-.09Q227.9,312.1,221.11,312.19Z"/><path class="cls-2" d="M410.83,297.41q-.54,2.61-1.31,7.28t-1,7.23a119,119,0,0,1-17.21,1.42,49.16,49.16,0,0,1-13.58-1.8,33.32,33.32,0,0,1-11.53-5.9,23.29,23.29,0,0,1-7.5-9.65,32.79,32.79,0,0,1-2.25-12.42,33.24,33.24,0,0,1,3-14.44,28.44,28.44,0,0,1,8.73-10.7,36.69,36.69,0,0,1,12.5-6.12,53.49,53.49,0,0,1,14.06-1.84,99.72,99.72,0,0,1,16.48,1.69l.09,3.72q.09,2.44.27,5.37l.32,5.06q-5.27-1.24-8.54-1.69a46,46,0,0,0-6.05-.44,24.4,24.4,0,0,0-10.95,2.4,18.22,18.22,0,0,0-7.66,7,19.05,19.05,0,0,0-2.79,10.12,15.14,15.14,0,0,0,8.67,14.26,22,22,0,0,0,9.84,2,52,52,0,0,0,7-.51A83.91,83.91,0,0,0,410.83,297.41Z"/><path class="cls-2" d="M433.13,312.19q2.24-21.57,2.68-47.48l-19.17.49.23-4.92c.12-2.64.21-5.52.27-8.66q12.78.09,29.81.09l11.12,0h10.81l5.85,0-.27,4.35q-.18,3.5-.25,5.78c0,1.52-.07,2.67-.07,3.45q-9.63-.48-15.88-.49h-3.15c-.46,5.23-.8,10.06-1.05,14.48q-.49,9.53-.77,18.49T453,312.19q-7.38-.09-9.54-.09Q441.54,312.1,433.13,312.19Z"/><rect class="cls-2" x="293.59" y="251.58" width="57.34" height="12.91"/><rect class="cls-2" x="293.59" y="299.19" width="57.34" height="12.91"/><rect class="cls-2" x="293.59" y="275.38" width="57.34" height="12.91"/></g></g></svg>